<?xml version="1.0" encoding="iso-8859-1"?>
<!-- Generator: Adobe Illustrator 19.0.0, SVG Export Plug-In . SVG Version: 6.00 Build 0)  -->
<svg version="1.1" id="Capa_1" xmlns="http://www.w3.org/2000/svg" xmlns:xlink="http://www.w3.org/1999/xlink" x="0px" y="0px"
	 viewBox="0 0 512 512" style="enable-background:new 0 0 512 512;" xml:space="preserve">
<g>
	<g>
		<path d="M414.5,238.715h-59.493v-55.03h12.494c4.142,0,7.5-3.357,7.5-7.5v-80c0-4.143-3.358-7.5-7.5-7.5h-42.559
			c-0.667-37.725-7.61-70.003-57.438-70.003c-31.405,0-60.241,18.904-72.516,30.596c-2.442-0.389-4.944-0.597-7.494-0.597
			c-2.547,0-5.046,0.207-7.486,0.596c-12.274-11.692-41.107-30.595-72.514-30.595c-49.826,0-56.769,32.278-57.436,70.003H7.5
			c-4.142,0-7.5,3.357-7.5,7.5v80c0,4.143,3.358,7.5,7.5,7.5H20v72.524c0,4.14,3.37,7.5,7.5,7.5c4.14,0,7.5-3.36,7.5-7.5v-72.149
			h105v164.649H35v-62.5c0-4.13-3.36-7.5-7.5-7.5c-4.13,0-7.5,3.37-7.5,7.5v150c0,0.648,0.091,1.274,0.247,1.874
			c0.832,3.236,3.76,5.63,7.255,5.63h33.407c3.687,27.953,27.653,49.604,56.596,49.604s52.909-21.65,56.596-49.604h173.802
			c3.687,27.953,27.653,49.604,56.596,49.604s52.909-21.65,56.596-49.604H504.5c4.142,0,7.5-3.357,7.5-7.5v-99.998
			C512,282.453,468.262,238.715,414.5,238.715z M406.996,253.715v44.996h-51.989v-44.996H406.996z M360.001,103.685v65h-125v-65
			H360.001z M340.007,184.06v164.649H235.001V184.06H340.007z M267.505,33.682c23.506,0,31.099,7.859,35.087,14.706
			c5.618,9.646,7.055,24.662,7.345,40.297h-75.539c-2.287-14.358-11.032-26.583-23.153-33.613
			C223.97,45.254,245.912,33.682,267.505,33.682z M155,168.685v-65h65.001v65H155z M220.001,184.06v164.649H155V184.06H220.001z
			 M187.496,63.681c15.341,0,28.222,10.686,31.617,25.004h-63.235C159.273,74.369,172.155,63.681,187.496,63.681z M72.41,48.388
			c3.988-6.847,11.58-14.706,35.085-14.706c21.594,0,43.533,11.569,56.256,21.386c-12.124,7.029-20.873,19.256-23.159,33.617H65.065
			C65.354,73.051,66.791,58.033,72.41,48.388z M15,168.685v-65h125v65H15z M117.505,478.316c-23.216,0-42.104-18.889-42.104-42.105
			s18.888-42.104,42.104-42.104s42.105,18.888,42.105,42.104C159.609,459.428,140.721,478.316,117.505,478.316z M404.499,478.316
			c-23.216,0-42.104-18.889-42.104-42.105s18.888-42.104,42.104-42.104s42.104,18.888,42.104,42.104
			C446.603,459.428,427.715,478.316,404.499,478.316z M497,428.714h-35.904c-3.685-27.954-27.652-49.605-56.597-49.605
			c-28.944,0-52.912,21.651-56.597,49.605h-173.8c-3.685-27.954-27.652-49.605-56.597-49.605c-28.944,0-52.912,21.651-56.597,49.605
			H35v-65.005h312.507c4.142,0,7.5-3.357,7.5-7.5v-42.498h59.489c11.009,0,21.314,9.429,33.245,20.346
			c13.582,12.427,28.789,26.327,49.259,29.136V428.714z M497,347.979c-14.991-2.909-27.238-14.104-39.133-24.989
			c-11.05-10.11-22.419-20.51-35.871-23.455v-45.463C463.985,257.873,497,293.253,497,336.215V347.979z"/>
	</g>
</g>
<g>
	<g>
		<path d="M117.505,408.711c-15.164,0-27.5,12.337-27.5,27.5c0,15.163,12.336,27.5,27.5,27.5s27.5-12.337,27.5-27.5
			C145.005,421.048,132.669,408.711,117.505,408.711z M117.505,448.711c-6.893,0-12.5-5.607-12.5-12.5s5.607-12.5,12.5-12.5
			s12.5,5.607,12.5,12.5C130.005,443.103,124.397,448.711,117.505,448.711z"/>
	</g>
</g>
<g>
	<g>
		<path d="M404.499,408.711c-15.164,0-27.5,12.337-27.5,27.5c0,15.163,12.336,27.5,27.5,27.5s27.5-12.337,27.5-27.5
			C431.999,421.048,419.663,408.711,404.499,408.711z M404.499,448.711c-6.893,0-12.5-5.607-12.5-12.5s5.607-12.5,12.5-12.5
			s12.5,5.607,12.5,12.5C416.999,443.103,411.392,448.711,404.499,448.711z"/>
	</g>
</g>
<g>
</g>
<g>
</g>
<g>
</g>
<g>
</g>
<g>
</g>
<g>
</g>
<g>
</g>
<g>
</g>
<g>
</g>
<g>
</g>
<g>
</g>
<g>
</g>
<g>
</g>
<g>
</g>
<g>
</g>
</svg>
